                  <svg xmlns="http://www.w3.org/2000/svg" width="71" height="34" viewBox="0 0 71 34" fill="none">
                    <mask id="mask0_5_6183" style="mask-type:alpha" maskUnits="userSpaceOnUse" x="0" y="0" width="71" height="34">
                      <rect width="70.5" height="33.25" fill="#D9D9D9"/>
                    </mask>
                    <g mask="url(#mask0_5_6183)">
                      <path d="M7.53906 17.2102C8.79549 18.1827 11.8882 19.69 14.2078 17.9395C17.1072 15.7515 18.9918 11.5838 19.8617 12.4174C20.7315 13.2509 22.0362 15.8557 24.9357 12.4174C27.8351 8.97902 28.705 5.33229 31.6044 6.16583C34.5038 6.99936 36.6784 24.5036 42.0424 20.8569C47.4063 17.2102 49.146 11.688 50.7407 12.4174C52.3354 13.1467 54.22 6.99936 56.3946 6.89517C58.5692 6.79098 61.6136 13.3551 62.3384 13.5635C63.0633 13.7718 64.658 11.2712 66.5426 12.4174C68.4272 13.5635 72.6314 20.4401 75.6758 19.1898C78.7202 17.9395 83.0694 12.7299 85.099 13.1467C87.1286 13.5635 89.5931 12.5215 90.318 11.167C91.0429 9.81255 93.0725 5.33229 97.1317 7.72871" stroke="#3ED598" stroke-width="1.5" stroke-linecap="round" stroke-linejoin="round"/>
                      <path d="M14.2072 18.5441C11.8877 20.2945 8.79496 18.7872 7.53854 17.8147L0 45.8424L99.3057 48.9682C99.9339 36.222 100.379 10.2504 97.1312 8.33326C93.0719 5.93684 91.0423 10.4171 90.3175 11.7716C89.5926 13.1261 87.1281 14.168 85.0985 13.7512C83.0689 13.3345 78.7197 18.5441 75.6753 19.7944C72.6309 21.0447 68.4267 14.168 66.5421 13.0219C64.6575 11.8758 63.0628 14.3764 62.3379 14.168C61.613 13.9596 58.5686 7.39553 56.3941 7.49972C54.2195 7.60391 52.3349 13.7512 50.7402 13.0219C49.1455 12.2926 47.4058 17.8147 42.0418 21.4615C36.6779 25.1082 34.5033 7.60392 31.6039 6.77038C28.7044 5.93684 27.8346 9.58357 24.9352 13.0219C22.0357 16.4602 20.731 13.8554 19.8611 13.0219C18.9913 12.1884 17.1067 16.3561 14.2072 18.5441Z" fill="url(#paint0_linear_5_6183)"/>
                    </g>
                    <defs>
                      <linearGradient id="paint0_linear_5_6183" x1="50.0153" y1="2.5865" x2="50.0153" y2="40.5286" gradientUnits="userSpaceOnUse">
                        <stop stop-color="#3ED598" stop-opacity="0.2"/>
                        <stop offset="0.72165" stop-color="#3ED598" stop-opacity="0"/>
                      </linearGradient>
                    </defs>
                  </svg>
