                    <svg xmlns="http://www.w3.org/2000/svg" width="24" height="24" viewBox="0 0 24 24" fill="none">
                      <rect width="24" height="24" rx="6" transform="matrix(-1 0 0 1 24 0)" fill="white"/>
                      <rect x="-0.25" y="0.25" width="23.5" height="23.5" rx="5.75" transform="matrix(-1 0 0 1 23.5 0)" stroke="#99A1B7" stroke-opacity="0.4" stroke-width="0.5"/>
                      <path d="M13.5 17.3748H10.5C7.785 17.3748 6.625 16.2148 6.625 13.4998V10.4998C6.625 7.78476 7.785 6.62476 10.5 6.62476H11.5C11.705 6.62476 11.875 6.79476 11.875 6.99976C11.875 7.20476 11.705 7.37476 11.5 7.37476H10.5C8.195 7.37476 7.375 8.19476 7.375 10.4998V13.4998C7.375 15.8048 8.195 16.6248 10.5 16.6248H13.5C15.805 16.6248 16.625 15.8048 16.625 13.4998V12.4998C16.625 12.2948 16.795 12.1248 17 12.1248C17.205 12.1248 17.375 12.2948 17.375 12.4998V13.4998C17.375 16.2148 16.215 17.3748 13.5 17.3748Z" fill="#292D32"/>
                      <path d="M10.2497 14.845C9.94467 14.845 9.66467 14.735 9.45967 14.535C9.21467 14.29 9.10967 13.935 9.16467 13.56L9.37967 12.055C9.41967 11.765 9.60967 11.39 9.81467 11.185L13.7547 7.24503C14.7497 6.25003 15.7597 6.25003 16.7547 7.24503C17.2997 7.79003 17.5447 8.34503 17.4947 8.90003C17.4497 9.35003 17.2097 9.79003 16.7547 10.24L12.8147 14.18C12.6097 14.385 12.2347 14.575 11.9447 14.615L10.4397 14.83C10.3747 14.845 10.3097 14.845 10.2497 14.845ZM14.2847 7.77503L10.3447 11.715C10.2497 11.81 10.1397 12.03 10.1197 12.16L9.90467 13.665C9.88467 13.81 9.91467 13.93 9.98967 14.005C10.0647 14.08 10.1847 14.11 10.3297 14.09L11.8347 13.875C11.9647 13.855 12.1897 13.745 12.2797 13.65L16.2197 9.71003C16.5447 9.38503 16.7147 9.09503 16.7397 8.82503C16.7697 8.50003 16.5997 8.15503 16.2197 7.77003C15.4197 6.97003 14.8697 7.19503 14.2847 7.77503Z" fill="#292D32"/>
                      <path d="M15.9248 10.9149C15.8898 10.9149 15.8548 10.9099 15.8248 10.8999C14.5098 10.5299 13.4648 9.48489 13.0948 8.16989C13.0398 7.96989 13.1548 7.76489 13.3548 7.70489C13.5548 7.64989 13.7598 7.76489 13.8148 7.96489C14.1148 9.02989 14.9598 9.87489 16.0248 10.1749C16.2248 10.2299 16.3398 10.4399 16.2848 10.6399C16.2398 10.8099 16.0898 10.9149 15.9248 10.9149Z" fill="#292D32"/>
                    </svg>
