                  <svg xmlns="http://www.w3.org/2000/svg" width="12" height="12" viewBox="0 0 12 12" fill="none">
                      <path d="M5.99996 8.16478C4.80496 8.16478 3.83496 7.19478 3.83496 5.99978C3.83496 4.80478 4.80496 3.83478 5.99996 3.83478C7.19496 3.83478 8.16496 4.80478 8.16496 5.99978C8.16496 7.19478 7.19496 8.16478 5.99996 8.16478ZM5.99996 4.58478C5.21996 4.58478 4.58496 5.21978 4.58496 5.99978C4.58496 6.77978 5.21996 7.41478 5.99996 7.41478C6.77996 7.41478 7.41496 6.77978 7.41496 5.99978C7.41496 5.21978 6.77996 4.58478 5.99996 4.58478Z" fill="#1C1C28"/>
                      <path d="M6.00004 10.5097C4.12004 10.5097 2.34504 9.40975 1.12504 7.49975C0.595039 6.67475 0.595039 5.32975 1.12504 4.49975C2.35004 2.58975 4.12504 1.48975 6.00004 1.48975C7.87504 1.48975 9.65004 2.58975 10.87 4.49975C11.4 5.32475 11.4 6.66975 10.87 7.49975C9.65004 9.40975 7.87504 10.5097 6.00004 10.5097ZM6.00004 2.23975C4.38504 2.23975 2.84004 3.20975 1.76004 4.90475C1.38504 5.48975 1.38504 6.50975 1.76004 7.09475C2.84004 8.78975 4.38504 9.75975 6.00004 9.75975C7.61504 9.75975 9.16004 8.78975 10.24 7.09475C10.615 6.50975 10.615 5.48975 10.24 4.90475C9.16004 3.20975 7.61504 2.23975 6.00004 2.23975Z" fill="#1C1C28"/>
                    </svg>
