                   <svg xmlns="http://www.w3.org/2000/svg" width="13" height="12" viewBox="0 0 13 12" fill="none">
                      <g clip-path="url(#clip0_5_6119)">
                        <path d="M10.8 1.19988H12.3999C12.5583 1.20121 12.7104 1.1382 12.8213 1.02528C12.9489 0.900718 13.0137 0.725292 12.9975 0.547685C12.9628 0.232654 12.6945 -0.00447166 12.3776 -9.29219e-05H9.79998C9.35816 -9.29219e-05 9 0.358072 9 0.799888V11.1997C9 11.6415 9.35816 11.9997 9.79998 11.9997C10.2418 11.9997 10.6 11.6415 10.6 11.1997V7.79977C10.6 7.68931 10.6895 7.59977 10.8 7.59977H12.3999C12.5582 7.6011 12.7103 7.53809 12.8213 7.42518C12.9489 7.30059 13.0136 7.12518 12.9975 6.94758C12.9628 6.63253 12.6944 6.3954 12.3775 6.39978H10.7999C10.6895 6.39978 10.5999 6.31024 10.5999 6.19978V5.99979H12.5999C12.7104 5.99979 12.7999 5.91025 12.7999 5.79979C12.7999 5.68933 12.7104 5.5998 12.5999 5.5998H10.6V5.19981H12.5999C12.7104 5.19981 12.7999 5.11027 12.7999 4.99981C12.7999 4.88935 12.7104 4.79982 12.5999 4.79982H10.6V4.39983H12.5999C12.7104 4.39983 12.7999 4.31029 12.7999 4.19983C12.7999 4.08937 12.7104 3.99983 12.5999 3.99983H10.6V3.59984H12.5999C12.7104 3.59984 12.7999 3.51031 12.7999 3.39985C12.7999 3.28939 12.7104 3.19985 12.5999 3.19985H10.6V2.79986H12.5999C12.7104 2.79986 12.7999 2.71033 12.7999 2.59987C12.7999 2.48941 12.7104 2.39987 12.5999 2.39987H10.6V1.99988H12.5999C12.7104 1.99988 12.7999 1.91034 12.7999 1.79989C12.7999 1.68943 12.7104 1.59989 12.5999 1.59989H10.6V1.39987C10.6 1.28942 10.6895 1.19988 10.8 1.19988ZM10.8 6.79979H12.3776C12.4869 6.79543 12.5823 6.87336 12.6 6.98138C12.6055 7.04108 12.5834 7.10004 12.54 7.14137C12.5033 7.17925 12.4527 7.20037 12.4 7.19976H10.8C10.4686 7.19976 10.2 7.46839 10.2 7.79975V11.1997C10.2 11.4206 10.0209 11.5997 9.80002 11.5997C9.5791 11.5997 9.40003 11.4206 9.40003 11.1997V0.799888C9.40003 0.57897 9.57912 0.399898 9.80002 0.399898H12.3776C12.4869 0.395539 12.5823 0.473465 12.6 0.581487C12.6058 0.641521 12.5837 0.700921 12.54 0.742489C12.5031 0.779996 12.4525 0.80074 12.4 0.799888H10.8C10.4686 0.799888 10.2 1.06852 10.2 1.39987V6.19978C10.2 6.53116 10.4686 6.79979 10.8 6.79979Z" fill="#83899F" stroke="#83899F" stroke-width="0.2"/>
                        <path d="M6.9992 11.1997C7.44102 11.1997 7.79918 10.8416 7.79918 10.3997V9.99975C7.79918 9.55793 7.44102 9.19977 6.9992 9.19977C6.55738 9.19977 6.19922 9.55793 6.19922 9.99975V10.3997C6.19922 10.8416 6.55738 11.1997 6.9992 11.1997ZM6.59921 9.99975C6.59921 9.77883 6.7783 9.59976 6.9992 9.59976C7.2201 9.59976 7.39919 9.77885 7.39919 9.99975V10.3997C7.39919 10.6207 7.2201 10.7997 6.9992 10.7997C6.7783 10.7997 6.59921 10.6206 6.59921 10.3997V9.99975Z" fill="#83899F"/>
                        <path d="M2.60076 11.1997C3.04258 11.1997 3.40074 10.8416 3.40074 10.3997V9.99975C3.40074 9.55793 3.04258 9.19977 2.60076 9.19977C2.15895 9.19977 1.80078 9.55791 1.80078 9.99975V10.3997C1.80078 10.8416 2.15895 11.1997 2.60076 11.1997ZM2.20077 9.99975C2.20077 9.77883 2.37986 9.59976 2.60076 9.59976C2.82166 9.59976 3.00075 9.77885 3.00075 9.99975V10.3997C3.00075 10.6207 2.82166 10.7997 2.60076 10.7997C2.37986 10.7997 2.20077 10.6206 2.20077 10.3997V9.99975Z" fill="#83899F"/>
                        <path d="M2.54797 11.9997H2.59496C3.00421 11.9982 3.39653 11.8362 3.68755 11.5485C4.01371 11.2313 4.19845 10.7961 4.20014 10.3411V9.09714C4.19944 8.83131 4.30509 8.57625 4.49353 8.38876L4.80012 8.08217L5.10651 8.38856C5.29381 8.57692 5.3993 8.83152 5.40011 9.09714V10.3413C5.40195 10.7967 5.58723 11.2322 5.9141 11.5493C6.20417 11.8362 6.59513 11.9979 7.00308 11.9997H7.05188C7.91523 11.9717 8.60051 11.2635 8.60005 10.3997V10.0447C8.61323 9.56977 8.41478 9.11349 8.05838 8.79927C7.70198 8.48505 7.22444 8.34535 6.75488 8.41794C6.6615 8.43472 6.56919 8.38358 6.53389 8.29553L5.7401 6.28397L7.38387 2.09164C7.47434 1.87983 7.52122 1.65196 7.52168 1.42165C7.55098 0.875199 7.28344 0.355378 6.82169 0.0616654C6.72235 -0.00149937 6.59994 -0.0168349 6.4881 0.0198594C6.37413 0.0564347 6.28239 0.141929 6.23789 0.253062L4.80012 3.89863L3.36174 0.251497C3.31674 0.139987 3.22411 0.0545524 3.10934 0.0187102C2.998 -0.0171321 2.87647 -0.00122199 2.77814 0.0621013C2.31649 0.355893 2.04897 0.875655 2.07815 1.42209C2.07835 1.65061 2.12454 1.87676 2.21395 2.08708L3.86012 6.28201L3.06614 8.29555C3.03113 8.38511 2.93678 8.43651 2.84255 8.41735C2.72718 8.40029 2.6103 8.39573 2.49395 8.40375C1.64131 8.47195 0.987867 9.19005 1.00017 10.0453V10.3997C1.00045 11.2631 1.68508 11.9708 2.54797 11.9997ZM6.60569 0.398095C6.95206 0.619172 7.15012 1.01171 7.12208 1.42167C7.12163 1.60054 7.08481 1.77746 7.01388 1.94167L5.52511 5.7378L5.01492 4.44403L6.60569 0.398095ZM2.47777 1.42248C2.44975 1.01377 2.646 0.622124 2.99016 0.399898L6.16191 8.44257C6.26593 8.70426 6.53795 8.85841 6.81591 8.81316C6.9035 8.79968 6.99229 8.79594 7.08071 8.80196C7.7225 8.85758 8.21165 9.40064 8.20008 10.0447V10.3997C8.20044 11.0471 7.68716 11.5781 7.04009 11.5997C6.72401 11.6064 6.41863 11.4851 6.19331 11.2633C5.94333 11.0215 5.80155 10.6891 5.80012 10.3413V9.09714C5.79907 8.72548 5.65144 8.36924 5.38933 8.10576L4.90553 7.62196C4.81698 7.53314 4.74542 7.4289 4.69434 7.31436L2.58395 1.93666C2.51432 1.77417 2.4782 1.59928 2.47777 1.42248ZM1.40018 10.0453C1.3878 9.40036 1.87834 8.85663 2.52116 8.80275C2.60846 8.79681 2.69615 8.80016 2.78275 8.81276C3.06123 8.85966 3.33455 8.70527 3.43814 8.44257L4.07432 6.8288L4.32532 7.46879C4.3783 7.58386 4.44622 7.69145 4.52731 7.78877L4.21072 8.10537C3.94678 8.36779 3.79892 8.72497 3.80013 9.09714V10.3411C3.79866 10.6879 3.65767 11.0195 3.40893 11.2611C3.18243 11.4826 2.87689 11.6044 2.56015 11.5997C1.91337 11.5775 1.40044 11.0469 1.40016 10.3997V10.0453H1.40018Z" fill="#83899F" stroke="#83899F" stroke-width="0.2"/>
                      </g>
                      <defs>
                        <clipPath id="clip0_5_6119">
                          <rect width="13" height="12" fill="white"/>
                        </clipPath>
                      </defs>
                    </svg>
