          <svg xmlns="http://www.w3.org/2000/svg" width="14" height="14" viewBox="0 0 14 14" fill="none">
                    <path d="M5.83366 13.2708H5.25033C2.08283 13.2708 0.729492 11.9175 0.729492 8.74999V5.24999C0.729492 2.08249 2.08283 0.729156 5.25033 0.729156H8.75033C11.9178 0.729156 13.2712 2.08249 13.2712 5.24999V6.41666C13.2712 6.65582 13.0728 6.85416 12.8337 6.85416C12.5945 6.85416 12.3962 6.65582 12.3962 6.41666V5.24999C12.3962 2.56082 11.4395 1.60416 8.75033 1.60416H5.25033C2.56116 1.60416 1.60449 2.56082 1.60449 5.24999V8.74999C1.60449 11.4392 2.56116 12.3958 5.25033 12.3958H5.83366C6.07283 12.3958 6.27116 12.5942 6.27116 12.8333C6.27116 13.0725 6.07283 13.2708 5.83366 13.2708Z" fill="#99A1B7"/>
                    <path d="M12.8337 5.39584H1.18457C0.945404 5.39584 0.74707 5.19751 0.74707 4.95834C0.74707 4.71918 0.945404 4.52084 1.18457 4.52084H12.8337C13.0729 4.52084 13.2712 4.71918 13.2712 4.95834C13.2712 5.19751 13.0729 5.39584 12.8337 5.39584Z" fill="#99A1B7"/>
                    <path d="M7.00039 9.47916H1.18457C0.945404 9.47916 0.74707 9.28082 0.74707 9.04166C0.74707 8.80249 0.945404 8.60416 1.18457 8.60416H7.00039C7.23955 8.60416 7.43789 8.80249 7.43789 9.04166C7.43789 9.28082 7.23955 9.47916 7.00039 9.47916Z" fill="#99A1B7"/>
                    <path d="M4.96387 13.265C4.7247 13.265 4.52637 13.0667 4.52637 12.8275V1.17834C4.52637 0.939178 4.7247 0.740845 4.96387 0.740845C5.20303 0.740845 5.40137 0.939178 5.40137 1.17834V12.8275C5.40137 13.0667 5.20887 13.265 4.96387 13.265Z" fill="#99A1B7"/>
                    <path d="M9.04688 7.43166C8.80771 7.43166 8.60938 7.23333 8.60938 6.99416V1.17834C8.60938 0.939178 8.80771 0.740845 9.04688 0.740845C9.28604 0.740845 9.48438 0.939178 9.48438 1.17834V6.99416C9.48438 7.23333 9.29187 7.43166 9.04688 7.43166Z" fill="#99A1B7"/>
                    <path d="M8.60998 13.2708C8.36498 13.2708 8.1433 13.1833 7.97997 13.0199C7.78163 12.8274 7.69415 12.5416 7.74082 12.2441L7.87497 11.3166C7.90414 11.095 8.0383 10.8266 8.20164 10.6633L10.6225 8.24247C10.9375 7.92747 11.2467 7.76413 11.5733 7.72913C11.9758 7.6883 12.3783 7.8633 12.7575 8.24247C13.1366 8.62163 13.3116 9.01832 13.2708 9.42665C13.2416 9.75332 13.0725 10.0625 12.7575 10.3775L10.3366 12.7983C10.1791 12.9558 9.91079 13.09 9.68329 13.125L8.76165 13.2591C8.70915 13.265 8.65664 13.2708 8.60998 13.2708ZM11.6783 8.60413C11.6725 8.60413 11.6608 8.60413 11.655 8.60413C11.5383 8.6158 11.3983 8.70327 11.235 8.8666L8.81413 11.2875C8.78496 11.3166 8.74413 11.4041 8.73829 11.445L8.60414 12.3724L9.55497 12.2675C9.59581 12.2616 9.68332 12.215 9.71249 12.1916L12.1333 9.7708C12.2966 9.60746 12.3841 9.46748 12.3958 9.35082C12.4075 9.21665 12.32 9.05911 12.1333 8.87244C11.9583 8.69161 11.8067 8.60413 11.6783 8.60413Z" fill="#99A1B7"/>
                    <path d="M12.0982 10.8558C12.0574 10.8558 12.0224 10.85 11.9815 10.8383C11.1065 10.5933 10.4065 9.89331 10.1615 9.01831C10.0974 8.78497 10.2315 8.54585 10.4649 8.48168C10.704 8.41752 10.9374 8.5517 11.0015 8.78503C11.1649 9.36836 11.6315 9.835 12.2149 9.99834C12.4482 10.0625 12.5824 10.3075 12.5182 10.535C12.4657 10.7334 12.2849 10.8558 12.0982 10.8558Z" fill="#99A1B7"/>
                  </svg>
