 <svg xmlns="http://www.w3.org/2000/svg" width="16" height="15" viewBox="0 0 16 15" fill="none">
                    <path d="M10.7633 1.25H5.52578C3.25078 1.25 1.89453 2.60625 1.89453 4.88125V10.1125C1.89453 12.3938 3.25078 13.75 5.52578 13.75H10.757C13.032 13.75 14.3883 12.3938 14.3883 10.1188V4.88125C14.3945 2.60625 13.0383 1.25 10.7633 1.25ZM11.132 6.0625L7.58828 9.60625C7.50078 9.69375 7.38203 9.74375 7.25703 9.74375C7.13203 9.74375 7.01328 9.69375 6.92578 9.60625L5.15703 7.8375C4.97578 7.65625 4.97578 7.35625 5.15703 7.175C5.33828 6.99375 5.63828 6.99375 5.81953 7.175L7.25703 8.6125L10.4695 5.4C10.6508 5.21875 10.9508 5.21875 11.132 5.4C11.3133 5.58125 11.3133 5.875 11.132 6.0625Z" fill="#27D08C"/>
                  </svg>
