                   <svg xmlns="http://www.w3.org/2000/svg" width="3" height="11" viewBox="0 0 3 11" fill="none">
                      <path d="M2.56977 8.99419C2.56977 9.70087 1.99157 10.2791 1.28488 10.2791C0.578198 10.2791 0 9.70087 0 8.99419C0 8.2875 0.578198 7.7093 1.28488 7.7093C1.99157 7.7093 2.56977 8.2875 2.56977 8.99419ZM1.28488 3.85465C0.578198 3.85465 0 4.43285 0 5.13953C0 5.84622 0.578198 6.42442 1.28488 6.42442C1.99157 6.42442 2.56977 5.84622 2.56977 5.13953C2.56977 4.43285 1.99157 3.85465 1.28488 3.85465ZM1.28488 0C0.578198 0 0 0.578198 0 1.28488C0 1.99157 0.578198 2.56977 1.28488 2.56977C1.99157 2.56977 2.56977 1.99157 2.56977 1.28488C2.56977 0.578198 1.99157 0 1.28488 0Z" fill="#0771DE"/>
                    </svg>
